<svg width="533" height="232" viewBox="0 0 533 232" fill="none" xmlns="http://www.w3.org/2000/svg">
<path d="M13.3294 106.635C17.5187 111.586 25.8972 115.014 34.6565 115.014C42.6542 115.014 46.4626 112.729 46.4626 108.539C46.4626 107.016 45.7009 105.874 43.7967 104.731C42.2733 103.969 39.2266 103.208 34.6565 102.065C30.0864 100.923 26.278 99.7801 23.993 99.0185C12.1869 94.8292 6.09345 87.5932 6.09345 77.3105C6.09345 69.3129 9.14018 63.2194 14.8528 58.6493C20.9462 54.0792 27.8014 51.7942 36.5607 51.7942C47.6051 51.7942 56.3645 55.2218 63.6004 62.0769L52.556 77.3105C48.3668 73.5021 42.6542 71.5979 36.1799 71.5979C31.229 71.5979 28.5631 73.5021 28.5631 76.5488C28.5631 78.4531 29.3248 79.5956 31.9906 80.7381C35.0374 81.8806 41.5117 83.0231 50.271 86.0699C62.4579 90.64 68.9322 98.2568 68.9322 108.539C68.9322 124.535 57.507 134.818 34.2757 134.818C19.042 134.818 7.61682 130.247 0 120.726L13.3294 106.635Z" fill="black"/>
<path d="M76.1682 54.4604H86.8317H99.3994V105.493C99.3994 111.206 100.923 113.872 104.731 113.872C106.255 113.872 107.016 113.872 107.397 113.491V133.294C105.493 134.056 101.684 134.437 96.7336 134.437C83.0233 134.437 76.1682 127.201 76.1682 112.348V65.1239V54.4604Z" fill="black"/>
<path d="M113.871 132.914V54.4604H137.103V63.9814C140.149 57.1262 148.147 52.5562 157.668 52.5562C168.332 52.5562 175.568 56.7454 178.995 65.1239C183.184 56.7454 191.944 52.5562 204.892 52.5562C222.411 52.5562 232.313 64.7431 232.313 84.9276V104.731C232.313 110.825 233.455 113.11 237.264 113.11H238.787H239.549V132.533C237.264 133.294 234.217 133.675 229.647 133.675C215.937 133.675 209.082 126.058 209.082 111.206V87.9744C209.082 78.8342 204.892 73.1216 197.656 73.1216C190.04 73.1216 184.708 79.5959 184.708 88.736V132.914H161.477V87.9744C161.477 78.8342 157.287 73.1216 149.67 73.1216C142.054 73.1216 136.722 79.5959 136.722 88.736V132.914H113.871Z" fill="black"/>
<path d="M246.785 162.619V54.4603H270.016V64.743C272.301 57.8878 281.441 52.9369 293.247 52.9369C304.292 52.9369 313.813 56.7453 321.049 64.743C328.666 72.3598 332.093 82.2617 332.093 93.6869C332.093 105.112 328.285 114.633 321.049 122.631C313.813 130.248 304.292 134.437 293.247 134.437C281.441 134.437 272.301 129.486 270.016 122.631V163L246.785 162.619ZM303.149 107.397C306.958 103.589 308.862 99.0187 308.862 93.3061C308.862 87.9743 306.958 83.0234 303.149 79.5958C299.341 75.7874 294.771 73.8832 289.058 73.8832C283.346 73.8832 278.395 75.7874 274.586 79.5958C270.778 83.4042 268.493 87.9743 268.493 93.3061C268.493 98.6378 270.397 103.589 274.586 107.397C278.775 111.206 283.346 113.11 289.058 113.11C294.771 113.11 299.341 111.206 303.149 107.397Z" fill="black"/>
<path d="M339.71 24.3738H362.941V103.589C362.941 110.444 365.607 113.871 372.081 113.871C374.367 113.871 376.271 113.871 377.794 113.11V133.675C375.128 134.437 371.32 134.818 366.75 134.818C348.85 134.818 340.091 125.677 340.091 107.397L339.71 24.3738Z" fill="black"/>
<path d="M378.937 93.3063C378.937 81.1194 383.126 71.2175 390.743 63.6007C398.74 55.9839 409.023 52.1754 421.21 52.1754C433.016 52.1754 442.918 55.9839 450.154 63.6007C457.771 71.2175 461.198 80.7385 461.198 91.7829C461.198 94.4488 461.198 96.7338 460.817 99.3997H401.406C401.787 108.921 409.785 114.633 422.352 114.633C429.588 114.633 436.063 111.967 441.394 107.017L455.105 119.965C445.965 129.486 434.539 134.437 421.21 134.437C408.261 134.437 397.979 130.629 389.981 123.393C381.983 115.776 378.175 106.255 378.175 93.6871V93.3063H378.937ZM438.348 84.5469C438.348 77.3109 430.731 71.5983 421.21 71.5983C410.927 71.5983 402.93 77.3109 402.168 84.5469H438.348Z" fill="black"/>
<path d="M476.051 105.635C480.24 110.586 488.619 114.014 497.378 114.014C505.376 114.014 509.184 111.729 509.184 107.54C509.184 106.016 508.423 104.874 506.518 103.731C504.995 102.97 501.567 101.827 496.997 100.684C492.427 99.542 488.619 98.3994 486.334 97.6378C474.528 93.4485 468.434 86.2125 468.434 75.9298C468.434 67.9322 471.481 61.8387 477.194 57.2686C483.287 52.6985 490.142 50.4135 498.902 50.4135C509.946 50.4135 518.705 53.841 525.941 60.6962L514.897 75.9298C510.708 72.1214 504.995 70.2172 498.521 70.2172C493.57 70.2172 490.904 72.1214 490.904 75.1681C490.904 77.0723 491.666 78.2149 494.331 79.3574C497.378 80.4999 503.853 81.6424 512.612 84.6892C525.56 88.8784 532.035 96.4952 532.035 106.778C532.035 122.773 520.61 133.056 497.378 133.056C482.145 133.056 470.719 128.486 463.103 118.965L476.051 105.635Z" fill="black"/>
<path d="M25.1355 35.799L27.8014 40.75C25.5164 42.6542 21.708 44.5584 16.757 44.5584C7.61687 44.5584 2.2851 38.8458 2.2851 28.1822C2.2851 15.6145 10.2828 11.4252 16.757 11.4252C20.9463 11.4252 25.5164 12.9486 28.1823 17.5187L23.6122 21.3271C22.0888 19.4229 19.8038 17.5187 16.757 17.5187C12.5678 17.5187 9.52107 20.9463 9.52107 28.1822C9.52107 34.6565 11.8061 38.8458 17.5187 38.8458C20.1846 38.4649 22.4697 37.7033 25.1355 35.799Z" fill="black"/>
<path d="M44.1776 11.0445C48.7477 11.0445 57.8879 12.5678 57.8879 27.0398C57.8879 39.2267 51.4136 44.5585 43.0351 44.5585C34.6566 44.5585 29.3248 39.2267 29.3248 27.8015C29.7057 14.8529 37.7033 11.0445 44.1776 11.0445ZM50.2711 27.8015C50.2711 20.9463 48.7477 16.3762 43.7968 16.3762C39.2267 16.3762 37.3225 20.5655 37.3225 26.6589C37.3225 32.3716 38.0842 38.8458 43.7968 38.8458C48.3669 38.8458 50.2711 34.6566 50.2711 27.8015Z" fill="black"/>
<path d="M63.9813 43.4159V17.5188L63.2196 12.187H69.3131L70.0747 15.9954C72.3598 12.9487 75.4065 11.0445 79.5958 11.0445C85.6892 11.0445 89.4976 14.472 89.4976 22.0889V43.7968H81.8808V23.6122C81.8808 19.8038 81.1191 16.7571 77.3107 16.7571C73.5023 16.7571 70.8364 19.8038 70.8364 23.2314V43.7968H63.9813V43.4159Z" fill="black"/>
<path d="M105.112 0V12.1869H113.491V17.8995H105.112V33.8948C105.112 37.7033 106.635 38.8458 109.301 38.8458C110.825 38.8458 112.729 38.0841 113.491 37.7033L115.395 42.6542C113.491 43.7967 110.444 44.9392 107.397 44.9392C97.4953 44.9392 97.4953 38.8458 97.4953 34.6565V0H105.112Z" fill="black"/>
<path d="M144.339 37.7033L144.72 43.7967H138.245L137.864 40.3691H137.484C135.579 43.035 132.152 44.5584 128.724 44.5584C119.965 44.5584 116.537 38.4649 116.537 29.3248C116.537 18.2804 121.869 11.4252 132.914 11.4252C134.818 11.4252 139.388 11.8061 143.958 13.7103V37.7033H144.339ZM137.103 17.5187C136.341 17.1378 134.437 16.757 132.533 16.757C126.439 16.757 124.535 22.4696 124.535 28.9439C124.535 34.2757 125.678 39.2266 131.009 39.2266C134.818 39.2266 137.103 36.5607 137.103 33.8948V17.5187Z" fill="black"/>
<path d="M115.113 204V175.445H118.434V204H115.113ZM140.445 204V190.152C140.445 188.408 140.048 187.105 139.254 186.246C138.46 185.387 137.216 184.957 135.523 184.957C133.284 184.957 131.643 185.562 130.602 186.773C129.56 187.984 129.039 189.983 129.039 192.77V204H125.797V182.594H128.434L128.961 185.523H129.117C129.781 184.469 130.712 183.655 131.91 183.082C133.108 182.496 134.443 182.203 135.914 182.203C138.492 182.203 140.432 182.828 141.734 184.078C143.036 185.315 143.688 187.301 143.688 190.035V204H140.445ZM157.281 201.715C157.854 201.715 158.408 201.676 158.941 201.598C159.475 201.507 159.898 201.415 160.211 201.324V203.805C159.859 203.974 159.339 204.111 158.648 204.215C157.971 204.332 157.359 204.391 156.812 204.391C152.672 204.391 150.602 202.21 150.602 197.848V185.113H147.535V183.551L150.602 182.203L151.969 177.633H153.844V182.594H160.055V185.113H153.844V197.711C153.844 199 154.15 199.99 154.762 200.68C155.374 201.37 156.214 201.715 157.281 201.715ZM173.551 204.391C170.387 204.391 167.887 203.427 166.051 201.5C164.228 199.573 163.316 196.897 163.316 193.473C163.316 190.022 164.163 187.281 165.855 185.25C167.561 183.219 169.846 182.203 172.711 182.203C175.393 182.203 177.516 183.089 179.078 184.859C180.641 186.617 181.422 188.941 181.422 191.832V193.883H166.676C166.741 196.396 167.372 198.303 168.57 199.605C169.781 200.908 171.48 201.559 173.668 201.559C175.973 201.559 178.251 201.077 180.504 200.113V203.004C179.358 203.499 178.271 203.85 177.242 204.059C176.227 204.28 174.996 204.391 173.551 204.391ZM172.672 184.918C170.953 184.918 169.579 185.478 168.551 186.598C167.535 187.717 166.936 189.267 166.754 191.246H177.945C177.945 189.202 177.49 187.639 176.578 186.559C175.667 185.465 174.365 184.918 172.672 184.918ZM196.734 182.203C197.685 182.203 198.538 182.281 199.293 182.438L198.844 185.445C197.958 185.25 197.177 185.152 196.5 185.152C194.768 185.152 193.284 185.855 192.047 187.262C190.823 188.668 190.211 190.419 190.211 192.516V204H186.969V182.594H189.645L190.016 186.559H190.172C190.966 185.165 191.923 184.091 193.043 183.336C194.163 182.581 195.393 182.203 196.734 182.203ZM217.945 204V190.152C217.945 188.408 217.548 187.105 216.754 186.246C215.96 185.387 214.716 184.957 213.023 184.957C210.784 184.957 209.143 185.562 208.102 186.773C207.06 187.984 206.539 189.983 206.539 192.77V204H203.297V182.594H205.934L206.461 185.523H206.617C207.281 184.469 208.212 183.655 209.41 183.082C210.608 182.496 211.943 182.203 213.414 182.203C215.992 182.203 217.932 182.828 219.234 184.078C220.536 185.315 221.188 187.301 221.188 190.035V204H217.945ZM236.91 204.391C233.746 204.391 231.246 203.427 229.41 201.5C227.587 199.573 226.676 196.897 226.676 193.473C226.676 190.022 227.522 187.281 229.215 185.25C230.921 183.219 233.206 182.203 236.07 182.203C238.753 182.203 240.875 183.089 242.438 184.859C244 186.617 244.781 188.941 244.781 191.832V193.883H230.035C230.1 196.396 230.732 198.303 231.93 199.605C233.141 200.908 234.84 201.559 237.027 201.559C239.332 201.559 241.611 201.077 243.863 200.113V203.004C242.717 203.499 241.63 203.85 240.602 204.059C239.586 204.28 238.355 204.391 236.91 204.391ZM236.031 184.918C234.312 184.918 232.939 185.478 231.91 186.598C230.895 187.717 230.296 189.267 230.113 191.246H241.305C241.305 189.202 240.849 187.639 239.938 186.559C239.026 185.465 237.724 184.918 236.031 184.918ZM257.242 201.715C257.815 201.715 258.368 201.676 258.902 201.598C259.436 201.507 259.859 201.415 260.172 201.324V203.805C259.82 203.974 259.299 204.111 258.609 204.215C257.932 204.332 257.32 204.391 256.773 204.391C252.633 204.391 250.562 202.21 250.562 197.848V185.113H247.496V183.551L250.562 182.203L251.93 177.633H253.805V182.594H260.016V185.113H253.805V197.711C253.805 199 254.111 199.99 254.723 200.68C255.335 201.37 256.174 201.715 257.242 201.715ZM275.348 175.445H283.414C287.203 175.445 289.944 176.012 291.637 177.145C293.329 178.277 294.176 180.068 294.176 182.516C294.176 184.208 293.701 185.608 292.75 186.715C291.812 187.809 290.439 188.518 288.629 188.844V189.039C292.965 189.781 295.133 192.06 295.133 195.875C295.133 198.427 294.267 200.419 292.535 201.852C290.816 203.284 288.408 204 285.309 204H275.348V175.445ZM278.668 187.672H284.137C286.48 187.672 288.167 187.307 289.195 186.578C290.224 185.836 290.738 184.592 290.738 182.848C290.738 181.246 290.165 180.094 289.02 179.391C287.874 178.674 286.051 178.316 283.551 178.316H278.668V187.672ZM278.668 190.484V201.168H284.625C286.93 201.168 288.661 200.725 289.82 199.84C290.992 198.941 291.578 197.542 291.578 195.641C291.578 193.87 290.979 192.568 289.781 191.734C288.596 190.901 286.786 190.484 284.352 190.484H278.668ZM313.961 204L313.316 200.953H313.16C312.092 202.294 311.025 203.206 309.957 203.688C308.902 204.156 307.581 204.391 305.992 204.391C303.87 204.391 302.203 203.844 300.992 202.75C299.794 201.656 299.195 200.1 299.195 198.082C299.195 193.759 302.652 191.493 309.566 191.285L313.199 191.168V189.84C313.199 188.16 312.835 186.923 312.105 186.129C311.389 185.322 310.237 184.918 308.648 184.918C306.865 184.918 304.846 185.465 302.594 186.559L301.598 184.078C302.652 183.505 303.805 183.056 305.055 182.73C306.318 182.405 307.581 182.242 308.844 182.242C311.396 182.242 313.284 182.809 314.508 183.941C315.745 185.074 316.363 186.891 316.363 189.391V204H313.961ZM306.637 201.715C308.655 201.715 310.237 201.161 311.383 200.055C312.542 198.948 313.121 197.398 313.121 195.406V193.473L309.879 193.609C307.301 193.701 305.439 194.104 304.293 194.82C303.16 195.523 302.594 196.624 302.594 198.121C302.594 199.293 302.945 200.185 303.648 200.797C304.365 201.409 305.361 201.715 306.637 201.715ZM337.711 204V190.152C337.711 188.408 337.314 187.105 336.52 186.246C335.725 185.387 334.482 184.957 332.789 184.957C330.549 184.957 328.909 185.562 327.867 186.773C326.826 187.984 326.305 189.983 326.305 192.77V204H323.062V182.594H325.699L326.227 185.523H326.383C327.047 184.469 327.978 183.655 329.176 183.082C330.374 182.496 331.708 182.203 333.18 182.203C335.758 182.203 337.698 182.828 339 184.078C340.302 185.315 340.953 187.301 340.953 190.035V204H337.711ZM350.836 193.043C351.396 192.249 352.249 191.207 353.395 189.918L360.309 182.594H364.156L355.484 191.715L364.762 204H360.836L353.277 193.883L350.836 195.992V204H347.633V173.609H350.836V189.723C350.836 190.439 350.784 191.546 350.68 193.043H350.836ZM371.891 204H368.648V182.594H371.891V204ZM368.375 176.793C368.375 176.051 368.557 175.51 368.922 175.172C369.286 174.82 369.742 174.645 370.289 174.645C370.81 174.645 371.259 174.82 371.637 175.172C372.014 175.523 372.203 176.064 372.203 176.793C372.203 177.522 372.014 178.069 371.637 178.434C371.259 178.785 370.81 178.961 370.289 178.961C369.742 178.961 369.286 178.785 368.922 178.434C368.557 178.069 368.375 177.522 368.375 176.793ZM393.414 204V190.152C393.414 188.408 393.017 187.105 392.223 186.246C391.428 185.387 390.185 184.957 388.492 184.957C386.253 184.957 384.612 185.562 383.57 186.773C382.529 187.984 382.008 189.983 382.008 192.77V204H378.766V182.594H381.402L381.93 185.523H382.086C382.75 184.469 383.681 183.655 384.879 183.082C386.077 182.496 387.411 182.203 388.883 182.203C391.461 182.203 393.401 182.828 394.703 184.078C396.005 185.315 396.656 187.301 396.656 190.035V204H393.414ZM420.855 182.594V184.645L416.891 185.113C417.255 185.569 417.581 186.168 417.867 186.91C418.154 187.639 418.297 188.466 418.297 189.391C418.297 191.487 417.581 193.16 416.148 194.41C414.716 195.66 412.75 196.285 410.25 196.285C409.612 196.285 409.013 196.233 408.453 196.129C407.073 196.858 406.383 197.776 406.383 198.883C406.383 199.469 406.624 199.905 407.105 200.191C407.587 200.465 408.414 200.602 409.586 200.602H413.375C415.693 200.602 417.47 201.09 418.707 202.066C419.957 203.043 420.582 204.462 420.582 206.324C420.582 208.694 419.632 210.497 417.73 211.734C415.829 212.984 413.056 213.609 409.41 213.609C406.611 213.609 404.449 213.089 402.926 212.047C401.415 211.005 400.66 209.534 400.66 207.633C400.66 206.331 401.077 205.204 401.91 204.254C402.743 203.303 403.915 202.659 405.426 202.32C404.879 202.073 404.417 201.689 404.039 201.168C403.674 200.647 403.492 200.042 403.492 199.352C403.492 198.57 403.701 197.887 404.117 197.301C404.534 196.715 405.191 196.148 406.09 195.602C404.983 195.146 404.078 194.371 403.375 193.277C402.685 192.184 402.34 190.934 402.34 189.527C402.34 187.184 403.043 185.38 404.449 184.117C405.855 182.841 407.848 182.203 410.426 182.203C411.546 182.203 412.555 182.333 413.453 182.594H420.855ZM403.785 207.594C403.785 208.753 404.273 209.632 405.25 210.23C406.227 210.829 407.626 211.129 409.449 211.129C412.171 211.129 414.182 210.719 415.484 209.898C416.799 209.091 417.457 207.991 417.457 206.598C417.457 205.439 417.099 204.632 416.383 204.176C415.667 203.733 414.319 203.512 412.34 203.512H408.453C406.982 203.512 405.836 203.863 405.016 204.566C404.195 205.27 403.785 206.279 403.785 207.594ZM405.543 189.449C405.543 190.947 405.966 192.079 406.812 192.848C407.659 193.616 408.837 194 410.348 194C413.512 194 415.094 192.464 415.094 189.391C415.094 186.174 413.492 184.566 410.289 184.566C408.766 184.566 407.594 184.977 406.773 185.797C405.953 186.617 405.543 187.835 405.543 189.449Z" fill="black"/>
</svg>
