<svg width="316" height="97" viewBox="0 0 316 97" fill="none" xmlns="http://www.w3.org/2000/svg">
<path d="M7.9159 63.3268C10.4038 66.267 15.3795 68.3025 20.5813 68.3025C25.3309 68.3025 27.5926 66.9455 27.5926 64.4577C27.5926 63.553 27.1402 62.8745 26.0094 62.196C25.1047 61.7436 23.2954 61.2913 20.5813 60.6128C17.8673 59.9343 15.6056 59.2558 14.2486 58.8034C7.23739 56.3156 3.6187 52.0184 3.6187 45.9118C3.6187 41.1623 5.42805 37.5436 8.82057 34.8296C12.4393 32.1156 16.5103 30.7585 21.7122 30.7585C28.2711 30.7585 33.4729 32.7941 37.7701 36.8651L31.2113 45.9118C28.7234 43.6502 25.3309 42.5193 21.486 42.5193C18.5458 42.5193 16.9626 43.6502 16.9626 45.4595C16.9626 46.5903 17.415 47.2688 18.9982 47.9474C20.8075 48.6259 24.6524 49.3044 29.8542 51.1137C37.0916 53.8277 40.9365 58.3511 40.9365 64.4577C40.9365 73.9567 34.1514 80.0633 20.3552 80.0633C11.3084 80.0633 4.52337 77.3493 0 71.695L7.9159 63.3268Z" fill="black"/>
<path d="M45.2336 32.3416H51.5664H59.0299V62.6481C59.0299 66.0407 59.9346 67.6238 62.1963 67.6238C63.101 67.6238 63.5533 67.6238 63.7795 67.3977V79.1584C62.6486 79.6108 60.3869 79.8369 57.4467 79.8369C49.3047 79.8369 45.2336 75.5397 45.2336 66.7192V38.6743V32.3416Z" fill="black"/>
<path d="M67.6243 78.9323V32.3415H81.4206V37.9957C83.2299 33.9247 87.9794 31.2107 93.6336 31.2107C99.9664 31.2107 104.264 33.6985 106.299 38.6743C108.787 33.6985 113.989 31.2107 121.679 31.2107C132.082 31.2107 137.963 38.4481 137.963 50.435V62.1958C137.963 65.8145 138.641 67.1715 140.903 67.1715H141.808H142.26V78.7061C140.903 79.1584 139.094 79.3846 136.379 79.3846C128.237 79.3846 124.166 74.8612 124.166 66.0406V52.2444C124.166 46.8163 121.679 43.4238 117.381 43.4238C112.858 43.4238 109.692 47.2687 109.692 52.6967V78.9323H95.8953V52.2444C95.8953 46.8163 93.4075 43.4238 88.8841 43.4238C84.3607 43.4238 81.1944 47.2687 81.1944 52.6967V78.9323H67.6243Z" fill="black"/>
<path d="M146.557 96.5738V32.3419H160.354V38.4485C161.711 34.3774 167.139 31.4373 174.15 31.4373C180.709 31.4373 186.363 33.6989 190.66 38.4485C195.184 42.9718 197.219 48.8522 197.219 55.6373C197.219 62.4223 194.957 68.0766 190.66 72.8261C186.363 77.3495 180.709 79.8373 174.15 79.8373C167.139 79.8373 161.711 76.8971 160.354 72.8261V96.8L146.557 96.5738ZM180.03 63.7794C182.292 61.5177 183.423 58.8036 183.423 55.4111C183.423 52.2448 182.292 49.3046 180.03 47.2691C177.769 45.0074 175.055 43.8765 171.662 43.8765C168.27 43.8765 165.329 45.0074 163.068 47.2691C160.806 49.5307 159.449 52.2448 159.449 55.4111C159.449 58.5775 160.58 61.5177 163.068 63.7794C165.556 66.041 168.27 67.1719 171.662 67.1719C175.055 67.1719 177.769 66.041 180.03 63.7794Z" fill="black"/>
<path d="M201.742 14.4746H215.538V61.5177C215.538 65.5887 217.122 67.6242 220.967 67.6242C222.324 67.6242 223.454 67.6242 224.359 67.1719V79.385C222.776 79.8373 220.514 80.0635 217.8 80.0635C207.17 80.0635 201.968 74.6354 201.968 63.7793L201.742 14.4746Z" fill="black"/>
<path d="M225.038 55.4111C225.038 48.1737 227.526 42.2933 232.049 37.7699C236.799 33.2465 242.905 30.9849 250.142 30.9849C257.154 30.9849 263.034 33.2465 267.331 37.7699C271.855 42.2933 273.89 47.9475 273.89 54.5064C273.89 56.0896 273.89 57.4466 273.664 59.0298H238.382C238.608 64.684 243.357 68.0765 250.821 68.0765C255.118 68.0765 258.963 66.4933 262.129 63.5531L270.271 71.2429C264.843 76.8971 258.058 79.8373 250.142 79.8373C242.453 79.8373 236.346 77.5756 231.597 73.2784C226.847 68.755 224.585 63.1008 224.585 55.6372V55.4111H225.038V55.4111ZM260.32 50.2092C260.32 45.912 255.797 42.5195 250.142 42.5195C244.036 42.5195 239.286 45.912 238.834 50.2092H260.32Z" fill="black"/>
<path d="M282.711 63.3271C285.199 66.2673 290.175 68.3029 295.376 68.3029C300.126 68.3029 302.388 66.9458 302.388 64.458C302.388 63.5533 301.935 62.8748 300.804 62.1963C299.9 61.744 297.864 61.0655 295.15 60.387C292.436 59.7085 290.175 59.0299 288.818 58.5776C281.806 56.0898 278.188 51.7926 278.188 45.686C278.188 40.9365 279.997 37.3178 283.389 34.6037C287.008 31.8897 291.079 30.5327 296.281 30.5327C302.84 30.5327 308.042 32.5682 312.339 36.6393L305.78 45.686C303.292 43.4243 299.9 42.2935 296.055 42.2935C293.115 42.2935 291.532 43.4243 291.532 45.2337C291.532 46.3645 291.984 47.043 293.567 47.7215C295.376 48.4 299.221 49.0785 304.423 50.8879C312.113 53.3757 315.958 57.8991 315.958 64.0057C315.958 73.5047 309.173 79.6113 295.376 79.6113C286.33 79.6113 279.545 76.8973 275.021 71.243L282.711 63.3271Z" fill="black"/>
<path d="M14.9273 21.2599L16.5105 24.2001C15.1535 25.331 12.8918 26.4618 9.95158 26.4618C4.52354 26.4618 1.35718 23.0693 1.35718 16.7366C1.35718 9.27301 6.10672 6.78516 9.95158 6.78516C12.4394 6.78516 15.1535 7.68983 16.7366 10.4039L14.0226 12.6655C13.1179 11.5347 11.7609 10.4039 9.95158 10.4039C7.46373 10.4039 5.65438 12.4394 5.65438 16.7366C5.65438 20.5814 7.01139 23.0693 10.4039 23.0693C11.9871 22.8431 13.3441 22.3908 14.9273 21.2599Z" fill="black"/>
<path d="M26.2361 6.55859C28.9501 6.55859 34.3782 7.46327 34.3782 16.0577C34.3782 23.2951 30.5333 26.4614 25.5576 26.4614C20.5819 26.4614 17.4155 23.2951 17.4155 16.51C17.6417 8.82028 22.3912 6.55859 26.2361 6.55859ZM29.8548 16.51C29.8548 12.439 28.9501 9.72495 26.0099 9.72495C23.2959 9.72495 22.1651 12.2128 22.1651 15.8315C22.1651 19.224 22.6174 23.0689 26.0099 23.0689C28.724 23.0689 29.8548 20.581 29.8548 16.51Z" fill="black"/>
<path d="M37.9965 25.7829V10.4035L37.5442 7.2371H41.1629L41.6152 9.49878C42.9722 7.68944 44.7816 6.55859 47.2694 6.55859C50.8881 6.55859 53.1498 8.59411 53.1498 13.1175V26.0091H48.6264V14.0222C48.6264 11.7605 48.1741 9.95112 45.9124 9.95112C43.6507 9.95112 42.0676 11.7605 42.0676 13.796V26.0091H37.9965V25.7829Z" fill="black"/>
<path d="M62.4228 0V7.23739H67.3985V10.6299H62.4228V20.129C62.4228 22.3907 63.3275 23.0692 64.9106 23.0692C65.8153 23.0692 66.9462 22.6169 67.3985 22.3907L68.5293 25.3309C67.3985 26.0094 65.5891 26.6879 63.7798 26.6879C57.8994 26.6879 57.8994 23.0692 57.8994 20.5813V0H62.4228Z" fill="black"/>
<path d="M85.7181 22.3908L85.9442 26.0095H82.0994L81.8732 23.974H81.647C80.5162 25.5571 78.4807 26.4618 76.4452 26.4618C71.2433 26.4618 69.2078 22.8431 69.2078 17.4151C69.2078 10.8562 72.3741 6.78516 78.933 6.78516C80.0639 6.78516 82.7779 7.01133 85.4919 8.14217V22.3908H85.7181ZM81.4209 10.4039C80.9685 10.1777 79.8377 9.95152 78.7068 9.95152C75.0881 9.95152 73.9573 13.344 73.9573 17.1889C73.9573 20.3553 74.6358 23.2955 77.8022 23.2955C80.0639 23.2955 81.4209 21.7123 81.4209 20.1291V10.4039Z" fill="black"/>
</svg>
