<svg width="351" height="120" viewBox="0 0 351 120" fill="none" xmlns="http://www.w3.org/2000/svg">
<g filter="url(#filter0_d)">
<path d="M64.8375 46.7C66.6722 48.8682 70.3414 50.3693 74.1775 50.3693C77.68 50.3693 79.3479 49.3686 79.3479 47.5339C79.3479 46.8668 79.0143 46.3664 78.1804 45.8661C77.5132 45.5325 76.179 45.1989 74.1775 44.6986C72.1761 44.1982 70.5082 43.6979 69.5075 43.3643C64.3372 41.5296 61.6686 38.3607 61.6686 33.8575C61.6686 30.355 63.0029 27.6864 65.5047 25.685C68.1732 23.6835 71.1754 22.6828 75.0115 22.6828C79.8482 22.6828 83.6843 24.1839 86.8533 27.1861L82.0165 33.8575C80.1818 32.1896 77.68 31.3557 74.8447 31.3557C72.6764 31.3557 71.5089 32.1896 71.5089 33.5239C71.5089 34.3578 71.8425 34.8582 73.01 35.3586C74.3443 35.8589 77.1797 36.3593 81.0157 37.6936C86.3529 39.695 89.1883 43.0307 89.1883 47.5339C89.1883 54.5389 84.1847 59.0422 74.0107 59.0422C67.3393 59.0422 62.3357 57.0407 59 52.8711L64.8375 46.7Z" fill="#FAFAFA"/>
<path d="M92.3572 23.8505H97.0272H102.531V46.1998C102.531 48.7016 103.198 49.8691 104.866 49.8691C105.533 49.8691 105.867 49.8691 106.034 49.7023V58.3752C105.2 58.7087 103.532 58.8755 101.364 58.8755C95.3593 58.8755 92.3572 55.7066 92.3572 49.2019V28.5205V23.8505Z" fill="#FAFAFA"/>
<path d="M108.869 58.2084V23.8504H119.043V28.0201C120.377 25.0179 123.88 23.0165 128.049 23.0165C132.719 23.0165 135.888 24.8512 137.389 28.5204C139.224 24.8512 143.06 23.0165 148.731 23.0165C156.403 23.0165 160.739 28.3537 160.739 37.1933V45.8662C160.739 48.5348 161.24 49.5355 162.908 49.5355H163.575H163.908V58.0416C162.908 58.3751 161.573 58.5419 159.572 58.5419C153.568 58.5419 150.566 55.2062 150.566 48.7015V38.5276C150.566 34.5247 148.731 32.023 145.562 32.023C142.226 32.023 139.891 34.8583 139.891 38.8612V58.2084H129.717V38.5276C129.717 34.5247 127.883 32.023 124.547 32.023C121.211 32.023 118.876 34.8583 118.876 38.8612V58.2084H108.869Z" fill="#FAFAFA"/>
<path d="M167.077 71.2176V23.8504H177.251V28.3536C178.252 25.3515 182.255 23.1833 187.425 23.1833C192.262 23.1833 196.432 24.8511 199.601 28.3536C202.936 31.6893 204.437 36.0258 204.437 41.0294C204.437 46.0329 202.769 50.2026 199.601 53.7051C196.432 57.0408 192.262 58.8754 187.425 58.8754C182.255 58.8754 178.252 56.7072 177.251 53.7051V71.3844L167.077 71.2176ZM191.762 47.0336C193.429 45.3658 194.263 43.3644 194.263 40.8626C194.263 38.5276 193.429 36.3593 191.762 34.8583C190.094 33.1904 188.092 32.3565 185.591 32.3565C183.089 32.3565 180.921 33.1904 179.253 34.8583C177.585 36.5261 176.584 38.5276 176.584 40.8626C176.584 43.1976 177.418 45.3658 179.253 47.0336C181.087 48.7015 183.089 49.5354 185.591 49.5354C188.092 49.5354 190.094 48.7015 191.762 47.0336Z" fill="#FAFAFA"/>
<path d="M207.773 10.6743H217.947V45.3658C217.947 48.3679 219.115 49.869 221.95 49.869C222.951 49.869 223.785 49.869 224.452 49.5354V58.5419C223.284 58.8755 221.616 59.0422 219.615 59.0422C211.776 59.0422 207.94 55.0394 207.94 47.0337L207.773 10.6743Z" fill="#FAFAFA"/>
<path d="M224.952 40.8627C224.952 35.5255 226.787 31.1891 230.122 27.8534C233.625 24.5177 238.128 22.8498 243.465 22.8498C248.636 22.8498 252.972 24.5177 256.141 27.8534C259.477 31.1891 260.978 35.3587 260.978 40.1955C260.978 41.363 260.978 42.3637 260.811 43.5312H234.792C234.959 47.7009 238.462 50.2027 243.966 50.2027C247.135 50.2027 249.97 49.0352 252.305 46.867L258.309 52.5377C254.306 56.7073 249.303 58.8756 243.465 58.8756C237.795 58.8756 233.291 57.2077 229.789 54.0388C226.286 50.703 224.618 46.5334 224.618 41.0295V40.8627H224.952ZM250.971 37.0266C250.971 33.8577 247.635 31.3559 243.465 31.3559C238.962 31.3559 235.46 33.8577 235.126 37.0266H250.971Z" fill="#FAFAFA"/>
<path d="M267.482 46.2621C269.317 48.4303 272.986 49.9314 276.823 49.9314C280.325 49.9314 281.993 48.9307 281.993 47.096C281.993 46.4289 281.659 45.9285 280.825 45.4282C280.158 45.0946 278.657 44.5943 276.656 44.0939C274.654 43.5935 272.986 43.0932 271.986 42.7596C266.815 40.925 264.147 37.756 264.147 33.2528C264.147 29.7503 265.481 27.0817 267.983 25.0803C270.651 23.0789 273.654 22.0782 277.49 22.0782C282.326 22.0782 286.163 23.5792 289.331 26.5814L284.495 33.2528C282.66 31.585 280.158 30.751 277.323 30.751C275.155 30.751 273.987 31.585 273.987 32.9192C273.987 33.7532 274.321 34.2535 275.488 34.7539C276.822 35.2542 279.658 35.7546 283.494 37.0889C289.165 38.9235 292 42.2593 292 46.7625C292 53.7675 286.996 58.2707 276.823 58.2707C270.151 58.2707 265.147 56.2693 261.812 52.0996L267.482 46.2621Z" fill="#FAFAFA"/>
<path d="M70.008 15.6779L71.1755 17.8461C70.1748 18.68 68.5069 19.5139 66.3387 19.5139C62.3359 19.5139 60.0009 17.0122 60.0009 12.3422C60.0009 6.83822 63.5034 5.00357 66.3387 5.00357C68.1734 5.00357 70.1748 5.67071 71.3423 7.67215L69.3409 9.34001C68.6737 8.50608 67.673 7.67215 66.3387 7.67215C64.5041 7.67215 63.1698 9.17322 63.1698 12.3422C63.1698 15.1775 64.1705 17.0122 66.6723 17.0122C67.8398 16.8454 68.8405 16.5118 70.008 15.6779Z" fill="#FAFAFA"/>
<path d="M78.3472 4.83682C80.3486 4.83682 84.3515 5.50397 84.3515 11.8418C84.3515 17.179 81.5161 19.514 77.8468 19.514C74.1775 19.514 71.8425 17.179 71.8425 12.1754C72.0093 6.50468 75.5118 4.83682 78.3472 4.83682ZM81.0158 12.1754C81.0158 9.17326 80.3486 7.17183 78.1804 7.17183C76.179 7.17183 75.345 9.00647 75.345 11.675C75.345 14.1768 75.6786 17.0122 78.1804 17.0122C80.1818 17.0122 81.0158 15.1776 81.0158 12.1754Z" fill="#FAFAFA"/>
<path d="M87.0201 19.0136V7.67218L86.6865 5.33718H89.3551L89.6887 7.00504C90.6894 5.67075 92.0237 4.83682 93.8583 4.83682C96.5269 4.83682 98.1948 6.3379 98.1948 9.67362V19.1804H94.859V10.3408C94.859 8.6729 94.5255 7.33861 92.8576 7.33861C91.1897 7.33861 90.0222 8.6729 90.0222 10.174V19.1804H87.0201V19.0136Z" fill="#FAFAFA"/>
<path d="M105.033 0V5.33715H108.702V7.83894H105.033V14.844C105.033 16.5118 105.7 17.0122 106.868 17.0122C107.535 17.0122 108.369 16.6786 108.702 16.5118L109.536 18.68C108.702 19.1804 107.368 19.6807 106.034 19.6807C101.697 19.6807 101.697 17.0122 101.697 15.1775V0H105.033Z" fill="#FAFAFA"/>
<path d="M122.212 16.5118L122.379 19.1804H119.543L119.377 17.6793H119.21C118.376 18.8468 116.875 19.5139 115.374 19.5139C111.538 19.5139 110.036 16.8454 110.036 12.8425C110.036 8.00572 112.372 5.00357 117.208 5.00357C118.042 5.00357 120.044 5.17036 122.045 6.00429V16.5118H122.212ZM119.043 7.67215C118.709 7.50536 117.875 7.33857 117.042 7.33857C114.373 7.33857 113.539 9.84036 113.539 12.6757C113.539 15.0107 114.039 17.1789 116.374 17.1789C118.042 17.1789 119.043 16.0114 119.043 14.8439V7.67215Z" fill="#FAFAFA"/>
</g>
<g filter="url(#filter1_d)">
<path d="M92.2373 90V74.2949H94.0635V90H92.2373ZM106.17 90V82.3838C106.17 81.4242 105.951 80.708 105.515 80.2354C105.078 79.7627 104.394 79.5264 103.463 79.5264C102.231 79.5264 101.329 79.8594 100.756 80.5254C100.183 81.1914 99.8965 82.2907 99.8965 83.8232V90H98.1133V78.2266H99.5635L99.8535 79.8379H99.9395C100.305 79.2578 100.817 78.8102 101.476 78.4951C102.134 78.1729 102.868 78.0117 103.678 78.0117C105.096 78.0117 106.163 78.3555 106.879 79.043C107.595 79.7233 107.953 80.8154 107.953 82.3193V90H106.17ZM115.43 88.7432C115.745 88.7432 116.049 88.7217 116.343 88.6787C116.636 88.6286 116.869 88.5785 117.041 88.5283V89.8926C116.848 89.9857 116.561 90.0609 116.182 90.1182C115.809 90.1826 115.473 90.2148 115.172 90.2148C112.895 90.2148 111.756 89.0153 111.756 86.6162V79.6123H110.069V78.7529L111.756 78.0117L112.508 75.498H113.539V78.2266H116.955V79.6123H113.539V86.541C113.539 87.25 113.707 87.7943 114.044 88.1738C114.381 88.5534 114.842 88.7432 115.43 88.7432ZM124.378 90.2148C122.638 90.2148 121.263 89.6849 120.253 88.625C119.25 87.5651 118.749 86.0934 118.749 84.21C118.749 82.3122 119.215 80.8047 120.146 79.6875C121.084 78.5703 122.34 78.0117 123.916 78.0117C125.391 78.0117 126.559 78.4987 127.418 79.4727C128.277 80.4395 128.707 81.7178 128.707 83.3076V84.4355H120.597C120.632 85.8177 120.98 86.8669 121.639 87.583C122.305 88.2992 123.239 88.6572 124.442 88.6572C125.71 88.6572 126.963 88.3923 128.202 87.8623V89.4521C127.572 89.7243 126.974 89.9176 126.408 90.0322C125.85 90.154 125.173 90.2148 124.378 90.2148ZM123.895 79.5049C122.949 79.5049 122.194 79.8128 121.628 80.4287C121.069 81.0446 120.74 81.8968 120.64 82.9854H126.795C126.795 81.861 126.544 81.0016 126.043 80.4072C125.542 79.8057 124.826 79.5049 123.895 79.5049ZM137.129 78.0117C137.652 78.0117 138.121 78.0547 138.536 78.1406L138.289 79.7949C137.802 79.6875 137.372 79.6338 137 79.6338C136.048 79.6338 135.231 80.0205 134.551 80.7939C133.878 81.5674 133.541 82.5306 133.541 83.6836V90H131.758V78.2266H133.229L133.434 80.4072H133.52C133.956 79.641 134.483 79.0501 135.099 78.6348C135.715 78.2194 136.391 78.0117 137.129 78.0117ZM148.795 90V82.3838C148.795 81.4242 148.576 80.708 148.14 80.2354C147.703 79.7627 147.019 79.5264 146.088 79.5264C144.856 79.5264 143.954 79.8594 143.381 80.5254C142.808 81.1914 142.521 82.2907 142.521 83.8232V90H140.738V78.2266H142.188L142.479 79.8379H142.564C142.93 79.2578 143.442 78.8102 144.101 78.4951C144.759 78.1729 145.493 78.0117 146.303 78.0117C147.721 78.0117 148.788 78.3555 149.504 79.043C150.22 79.7233 150.578 80.8154 150.578 82.3193V90H148.795ZM159.226 90.2148C157.485 90.2148 156.11 89.6849 155.101 88.625C154.098 87.5651 153.597 86.0934 153.597 84.21C153.597 82.3122 154.062 80.8047 154.993 79.6875C155.931 78.5703 157.188 78.0117 158.764 78.0117C160.239 78.0117 161.406 78.4987 162.266 79.4727C163.125 80.4395 163.555 81.7178 163.555 83.3076V84.4355H155.444C155.48 85.8177 155.827 86.8669 156.486 87.583C157.152 88.2992 158.087 88.6572 159.29 88.6572C160.558 88.6572 161.811 88.3923 163.05 87.8623V89.4521C162.42 89.7243 161.822 89.9176 161.256 90.0322C160.697 90.154 160.021 90.2148 159.226 90.2148ZM158.742 79.5049C157.797 79.5049 157.041 79.8128 156.476 80.4287C155.917 81.0446 155.588 81.8968 155.487 82.9854H161.643C161.643 81.861 161.392 81.0016 160.891 80.4072C160.389 79.8057 159.673 79.5049 158.742 79.5049ZM170.408 88.7432C170.723 88.7432 171.028 88.7217 171.321 88.6787C171.615 88.6286 171.848 88.5785 172.02 88.5283V89.8926C171.826 89.9857 171.54 90.0609 171.16 90.1182C170.788 90.1826 170.451 90.2148 170.15 90.2148C167.873 90.2148 166.734 89.0153 166.734 86.6162V79.6123H165.048V78.7529L166.734 78.0117L167.486 75.498H168.518V78.2266H171.934V79.6123H168.518V86.541C168.518 87.25 168.686 87.7943 169.022 88.1738C169.359 88.5534 169.821 88.7432 170.408 88.7432ZM180.366 74.2949H184.803C186.887 74.2949 188.394 74.6064 189.325 75.2295C190.256 75.8525 190.722 76.8372 190.722 78.1836C190.722 79.1146 190.46 79.8844 189.938 80.4932C189.422 81.0947 188.666 81.485 187.671 81.6641V81.7715C190.056 82.1797 191.248 83.4329 191.248 85.5312C191.248 86.9349 190.772 88.0306 189.819 88.8184C188.874 89.6061 187.549 90 185.845 90H180.366V74.2949ZM182.192 81.0195H185.2C186.489 81.0195 187.417 80.819 187.982 80.418C188.548 80.0098 188.831 79.3258 188.831 78.3662C188.831 77.4854 188.516 76.8516 187.886 76.4648C187.256 76.071 186.253 75.874 184.878 75.874H182.192V81.0195ZM182.192 82.5664V88.4424H185.469C186.736 88.4424 187.689 88.1989 188.326 87.7119C188.971 87.2178 189.293 86.4479 189.293 85.4023C189.293 84.4284 188.964 83.7122 188.305 83.2539C187.653 82.7956 186.658 82.5664 185.318 82.5664H182.192ZM201.604 90L201.249 88.3242H201.163C200.576 89.0618 199.989 89.5632 199.401 89.8281C198.821 90.0859 198.094 90.2148 197.221 90.2148C196.053 90.2148 195.137 89.9141 194.471 89.3125C193.812 88.7109 193.482 87.8551 193.482 86.7451C193.482 84.3675 195.384 83.1214 199.187 83.0068L201.185 82.9424V82.2119C201.185 81.2881 200.984 80.6077 200.583 80.1709C200.189 79.7269 199.555 79.5049 198.682 79.5049C197.701 79.5049 196.59 79.8057 195.352 80.4072L194.804 79.043C195.384 78.7279 196.018 78.4808 196.705 78.3018C197.4 78.1227 198.094 78.0332 198.789 78.0332C200.193 78.0332 201.231 78.3447 201.904 78.9678C202.585 79.5908 202.925 80.5898 202.925 81.9648V90H201.604ZM197.575 88.7432C198.685 88.7432 199.555 88.4388 200.186 87.8301C200.823 87.2214 201.142 86.3691 201.142 85.2734V84.21L199.358 84.2852C197.94 84.3353 196.916 84.5573 196.286 84.9512C195.663 85.3379 195.352 85.943 195.352 86.7666C195.352 87.4111 195.545 87.9017 195.932 88.2383C196.326 88.5749 196.873 88.7432 197.575 88.7432ZM214.666 90V82.3838C214.666 81.4242 214.448 80.708 214.011 80.2354C213.574 79.7627 212.89 79.5264 211.959 79.5264C210.727 79.5264 209.825 79.8594 209.252 80.5254C208.679 81.1914 208.393 82.2907 208.393 83.8232V90H206.609V78.2266H208.06L208.35 79.8379H208.436C208.801 79.2578 209.313 78.8102 209.972 78.4951C210.631 78.1729 211.365 78.0117 212.174 78.0117C213.592 78.0117 214.659 78.3555 215.375 79.043C216.091 79.7233 216.449 80.8154 216.449 82.3193V90H214.666ZM221.885 83.9736C222.193 83.5368 222.662 82.9639 223.292 82.2549L227.095 78.2266H229.211L224.441 83.2432L229.544 90H227.385L223.228 84.4355L221.885 85.5957V90H220.123V73.2852H221.885V82.1475C221.885 82.5413 221.856 83.1501 221.799 83.9736H221.885ZM233.465 90H231.682V78.2266H233.465V90ZM231.531 75.0361C231.531 74.6279 231.632 74.3307 231.832 74.1445C232.033 73.9512 232.283 73.8545 232.584 73.8545C232.87 73.8545 233.118 73.9512 233.325 74.1445C233.533 74.3379 233.637 74.6351 233.637 75.0361C233.637 75.4372 233.533 75.738 233.325 75.9385C233.118 76.1318 232.87 76.2285 232.584 76.2285C232.283 76.2285 232.033 76.1318 231.832 75.9385C231.632 75.738 231.531 75.4372 231.531 75.0361ZM245.303 90V82.3838C245.303 81.4242 245.084 80.708 244.647 80.2354C244.211 79.7627 243.527 79.5264 242.596 79.5264C241.364 79.5264 240.462 79.8594 239.889 80.5254C239.316 81.1914 239.029 82.2907 239.029 83.8232V90H237.246V78.2266H238.696L238.986 79.8379H239.072C239.438 79.2578 239.95 78.8102 240.608 78.4951C241.267 78.1729 242.001 78.0117 242.811 78.0117C244.229 78.0117 245.296 78.3555 246.012 79.043C246.728 79.7233 247.086 80.8154 247.086 82.3193V90H245.303ZM260.396 78.2266V79.3545L258.215 79.6123C258.415 79.863 258.594 80.1924 258.752 80.6006C258.91 81.0016 258.988 81.4564 258.988 81.9648C258.988 83.1178 258.594 84.0381 257.807 84.7256C257.019 85.4131 255.938 85.7568 254.562 85.7568C254.212 85.7568 253.882 85.7282 253.574 85.6709C252.815 86.0719 252.436 86.5768 252.436 87.1855C252.436 87.5078 252.568 87.7477 252.833 87.9053C253.098 88.0557 253.553 88.1309 254.197 88.1309H256.281C257.556 88.1309 258.534 88.3994 259.214 88.9365C259.901 89.4736 260.245 90.2542 260.245 91.2783C260.245 92.5817 259.722 93.5736 258.677 94.2539C257.631 94.9414 256.106 95.2852 254.101 95.2852C252.561 95.2852 251.372 94.9987 250.534 94.4258C249.703 93.8529 249.288 93.0436 249.288 91.998C249.288 91.2819 249.517 90.6624 249.976 90.1396C250.434 89.6169 251.078 89.2624 251.909 89.0762C251.608 88.9401 251.354 88.7288 251.146 88.4424C250.946 88.1559 250.846 87.8229 250.846 87.4434C250.846 87.0137 250.96 86.6377 251.189 86.3154C251.419 85.9932 251.78 85.6816 252.274 85.3809C251.666 85.1302 251.168 84.7041 250.781 84.1025C250.402 83.501 250.212 82.8135 250.212 82.04C250.212 80.751 250.599 79.7591 251.372 79.0645C252.146 78.3626 253.241 78.0117 254.659 78.0117C255.275 78.0117 255.83 78.0833 256.324 78.2266H260.396ZM251.007 91.9766C251.007 92.6139 251.275 93.0973 251.812 93.4268C252.35 93.7562 253.119 93.9209 254.122 93.9209C255.619 93.9209 256.725 93.6953 257.441 93.2441C258.165 92.8001 258.526 92.195 258.526 91.4287C258.526 90.7913 258.329 90.3473 257.936 90.0967C257.542 89.8532 256.8 89.7314 255.712 89.7314H253.574C252.765 89.7314 252.135 89.9248 251.684 90.3115C251.232 90.6982 251.007 91.2533 251.007 91.9766ZM251.974 81.9971C251.974 82.8206 252.206 83.4437 252.672 83.8662C253.137 84.2887 253.785 84.5 254.616 84.5C256.356 84.5 257.227 83.6549 257.227 81.9648C257.227 80.196 256.346 79.3115 254.584 79.3115C253.746 79.3115 253.102 79.5371 252.65 79.9883C252.199 80.4395 251.974 81.109 251.974 81.9971Z" fill="#FAFAFA"/>
</g>
<defs>
<filter id="filter0_d" x="55" y="0" width="241" height="79.3844" filterUnits="userSpaceOnUse" color-interpolation-filters="sRGB">
<feFlood flood-opacity="0" result="BackgroundImageFix"/>
<feColorMatrix in="SourceAlpha" type="matrix" values="0 0 0 0 0 0 0 0 0 0 0 0 0 0 0 0 0 0 127 0"/>
<feOffset dy="4"/>
<feGaussianBlur stdDeviation="2"/>
<feColorMatrix type="matrix" values="0 0 0 0 0 0 0 0 0 0 0 0 0 0 0 0 0 0 0.25 0"/>
<feBlend mode="normal" in2="BackgroundImageFix" result="effect1_dropShadow"/>
<feBlend mode="normal" in="SourceGraphic" in2="effect1_dropShadow" result="shape"/>
</filter>
<filter id="filter1_d" x="88.2373" y="73.2852" width="176.158" height="30" filterUnits="userSpaceOnUse" color-interpolation-filters="sRGB">
<feFlood flood-opacity="0" result="BackgroundImageFix"/>
<feColorMatrix in="SourceAlpha" type="matrix" values="0 0 0 0 0 0 0 0 0 0 0 0 0 0 0 0 0 0 127 0"/>
<feOffset dy="4"/>
<feGaussianBlur stdDeviation="2"/>
<feColorMatrix type="matrix" values="0 0 0 0 0 0 0 0 0 0 0 0 0 0 0 0 0 0 0.25 0"/>
<feBlend mode="normal" in2="BackgroundImageFix" result="effect1_dropShadow"/>
<feBlend mode="normal" in="SourceGraphic" in2="effect1_dropShadow" result="shape"/>
</filter>
</defs>
</svg>
