<svg width="16" height="19" viewBox="0 0 16 19" fill="none" xmlns="http://www.w3.org/2000/svg">
<path d="M9.5 1H2.7C2.24913 1 1.81673 1.17911 1.49792 1.49792C1.17911 1.81673 1 2.24913 1 2.7V16.3C1 16.7509 1.17911 17.1833 1.49792 17.5021C1.81673 17.8209 2.24913 18 2.7 18H12.9C13.3509 18 13.7833 17.8209 14.1021 17.5021C14.4209 17.1833 14.6 16.7509 14.6 16.3V6.1L9.5 1Z" stroke="#878986" stroke-width="2" stroke-linecap="round" stroke-linejoin="round"/>
<path d="M9.5 1V6.1H14.6" stroke="#878986" stroke-width="2" stroke-linecap="round" stroke-linejoin="round"/>
<path d="M11.1999 10.3501H4.3999" stroke="#878986" stroke-width="2" stroke-linecap="round" stroke-linejoin="round"/>
<path d="M11.1999 13.75H4.3999" stroke="#878986" stroke-width="2" stroke-linecap="round" stroke-linejoin="round"/>
<path d="M6.0999 6.9502H5.2499H4.3999" stroke="#878986" stroke-width="2" stroke-linecap="round" stroke-linejoin="round"/>
</svg>
