<svg width="11" height="13" viewBox="0 0 11 13" fill="none" xmlns="http://www.w3.org/2000/svg">
<path d="M5.5 13C6.25625 13 6.875 12.4 6.875 11.6667H4.125C4.125 12.4 4.74375 13 5.5 13ZM9.625 9V5.66667C9.625 3.62 8.50437 1.90667 6.53125 1.45333V1C6.53125 0.446667 6.07062 0 5.5 0C4.92938 0 4.46875 0.446667 4.46875 1V1.45333C2.5025 1.90667 1.375 3.61333 1.375 5.66667V9L0 10.3333V11H11V10.3333L9.625 9ZM8.25 9.66667H2.75V5.66667C2.75 4.01333 3.78812 2.66667 5.5 2.66667C7.21188 2.66667 8.25 4.01333 8.25 5.66667V9.66667Z" fill="#878986"/>
</svg>
